<svg xmlns="http://www.w3.org/2000/svg" xmlns:xlink="http://www.w3.org/1999/xlink" width="100%" height="100%" style="user-select: auto;">
  <defs style="user-select: auto;">
    <pattern id="pattern" width="40" height="40" viewBox="0 0 40,40" patternUnits="userSpaceOnUse" patternTransform="rotate(135) " style="user-select: auto;">
      <rect id="pattern-background" width="400%" height="400%" fill="rgba(0, 0, 0,1)" style="user-select: auto;"/>
      <path fill="rgba(45, 55, 72,1)" d="
                M-20 11 l20 -20 l20 20 l20 -20 l20 20 l20 -20 l20 20 v-2 l-20 -20 l-20 20 l-20 -20 l-20 20 l-20 -20 l-20 20 z
                M-20 -29 l20 -20 l20 20 l20 -20 l20 20 l20 -20 l20 20 v-2 l-20 -20 l-20 20 l-20 -20 l-20 20 l-20 -20 l-20 20 z
                M-20 51 l20 -20 l20 20 l20 -20 l20 20 l20 -20 l20 20 v-2 l-20 -20 l-20 20 l-20 -20 l-20 20 l-20 -20 l-20 20 z
                " style="user-select: auto;">
      
      <path fill="rgba(104, 211, 145,1)" d="
                M-20 30.5 l20 -20 l20 20 l20 -20 l20 20 l20 -20 l20 20 v-1 l-20 -20 l-20 20 l-20 -20 l-20 20 l-20 -20 l-20 20 z
                M-20 -9.5 l20 -20 l20 20 l20 -20 l20 20 l20 -20 l20 20 v-1 l-20 -20 l-20 20 l-20 -20 l-20 20 l-20 -20 l-20 20 z
                M-20 70.5 l20 -20 l20 20 l20 -20 l20 20 l20 -20 l20 20 v-1 l-20 -20 l-20 20 l-20 -20 l-20 20 l-20 -20 l-20 20 z
                " style="user-select: auto;">
      
      <path fill="rgba(45, 55, 72,1)" d="
                M-20 31 l20 -20 l20 20 l20 -20 l20 20 l20 -20 l20 20 v-2 l-20 -20 l-20 20 l-20 -20 l-20 20 l-20 -20 l-20 20 z
                M-20 -9 l20 -20 l20 20 l20 -20 l20 20 l20 -20 l20 20 v-2 l-20 -20 l-20 20 l-20 -20 l-20 20 l-20 -20 l-20 20 z
                M-20 71 l20 -20 l20 20 l20 -20 l20 20 l20 -20 l20 20 v-2 l-20 -20 l-20 20 l-20 -20 l-20 20 l-20 -20 l-20 20 z
                " style="user-select: auto;">
      
    </pattern>
  </defs>
  <rect fill="url(#pattern)" height="100%" width="100%" style="user-select: auto;"/>
</svg>